<svg width="24" height="24" viewBox="0 0 24 24" fill="none" xmlns="http://www.w3.org/2000/svg" class=" " role="img" aria-hidden="true" aria-labelledby=" "><path d="M20.34 7.5c-.13.1-2.38 1.37-2.38 4.2a4.85 4.85 0 0 0 2.95 4.44c-.01.07-.45 1.58-1.51 3.12-.94 1.36-1.92 2.71-3.42 2.71s-1.88-.87-3.6-.87c-1.7 0-2.3.9-3.66.9-1.37 0-2.32-1.25-3.42-2.8A13.48 13.48 0 0 1 3 11.93c0-4.28 2.78-6.54 5.52-6.54 1.45 0 2.66.95 3.58.95.87 0 2.22-1.01 3.88-1.01.62 0 2.88.06 4.36 2.18Zm-5.15-4A4.91 4.91 0 0 0 16.36.45c0-.15-.01-.31-.04-.44a4.92 4.92 0 0 0-3.24 1.67 4.78 4.78 0 0 0-1.21 2.98c0 .17.03.34.04.4.07.01.19.03.3.03 1 0 2.26-.67 2.98-1.57Z" fill="black"></path></svg>